<svg id="Layer_1" xmlns="http://www.w3.org/2000/svg" viewBox="0 0 634.3 134.1"><style>.st0{fill:#fff}.st1{fill:#ee7d22}.st2{fill:#4185c5}.st3{fill:none;stroke:#fff;stroke-width:6;stroke-miterlimit:10}</style><path class="st0" d="M628.3 6v122.1H6V6h622.3m6-6H0v134.1h634.3V0z"/><path class="st1" d="M0 0h134.1v134.1H0z"/><path class="st0" d="M28.6 67.1L47 48.7l-5.9-5.8-18.3 18.4-5.9 5.8 5.9 5.8 18.3 18.4 5.9-5.8zm77 0L87.3 85.5l5.8 5.8 18.3-18.4 5.9-5.8-5.9-5.8-18.3-18.4-5.8 5.8zM75.1 34.7l7.7 3-24.6 61.8-7.7-3 24.6-61.8z"/><path class="st0" d="M628.3 6v122.1H6V6h622.3m6-6H0v134.1h634.3V0z"/><path class="st0" d="M161.5 30.7h11v72.7h-11V30.7z"/><path class="st2" d="M232.3 30.7h27.8v8.7h-16.8v21.8h13.2v8.7h-13.2v33.6h-11V30.7zm37.3 0h12c1.4 0 2.9.1 4.5.2s3.3.4 4.9.8c1.6.4 3.2 1.1 4.7 2s2.9 2.1 4 3.6c1.2 1.5 2.1 3.5 2.8 5.8.7 2.3 1.1 5.1 1.1 8.4v1.8c0 5.5-.8 10-2.4 13.5-1.6 3.5-3.9 6-7 7.5l11.7 29.1h-11.7l-9.7-27.2h-4v27.2h-10.8V30.7h-.1zm12.5 37.6c1.9 0 3.6-.2 4.9-.6s2.4-1.1 3.2-2.2c.8-1 1.4-2.3 1.8-4s.6-3.7.6-6.2v-5.7c0-1.9-.2-3.5-.5-4.9s-.9-2.5-1.7-3.4c-.8-.9-1.9-1.5-3.2-2-1.3-.4-3-.6-5-.6h-1.7v29.5l1.6.1zm48.8 35.8c-1.2 0-2.4-.1-3.8-.3-1.4-.2-2.7-.6-4-1.2s-2.6-1.4-3.9-2.5c-1.2-1.1-2.3-2.5-3.3-4.3s-1.7-4-2.3-6.6c-.6-2.6-.9-5.8-.9-9.4V54c0-3.7.3-6.8.9-9.4.6-2.6 1.4-4.8 2.3-6.6 1-1.8 2.1-3.2 3.3-4.2 1.2-1 2.5-1.9 3.9-2.4 1.3-.6 2.7-.9 4-1.1s2.6-.3 3.7-.3 2.3.1 3.6.2c1.3.2 2.6.5 4 1 1.3.5 2.6 1.3 3.9 2.3 1.2 1 2.4 2.4 3.3 4.2 1 1.8 1.7 4 2.3 6.6.6 2.6.9 5.8.9 9.5v25.8c0 3.6-.3 6.7-.9 9.3-.6 2.6-1.4 4.8-2.3 6.6-1 1.8-2.1 3.3-3.3 4.3-1.3 1.1-2.6 1.9-3.9 2.6-1.3.6-2.6 1-3.9 1.2-1.4.4-2.5.5-3.6.5zm0-8.3c1.1 0 2-.2 2.8-.6s1.5-1 2-1.9.9-2.1 1.2-3.6c.3-1.5.4-3.4.4-5.6V51c0-2.3-.1-4.3-.4-5.8-.3-1.6-.7-2.8-1.2-3.8s-1.2-1.6-2-2-1.8-.6-2.8-.6c-1.1 0-2.1.2-2.9.6-.8.4-1.5 1.1-2 2-.5 1-.9 2.2-1.2 3.8-.3 1.6-.4 3.5-.4 5.8v33.1c0 2.3.1 4.2.4 5.6.3 1.5.7 2.7 1.2 3.6s1.2 1.5 2 1.9 1.8.6 2.9.6zm84.2-56.4h-11.7v-8.7h34.4v8.7h-11.7v64.1h-11V39.4z"/><path class="st1" d="M447.3 30.7h11v64.1h15v8.7h-26.1V30.7h.1zm46.4 0h12.7l13.5 72.7h-11.2l-2-13h-13.3l-1.9 13h-11.2l13.4-72.7zm11.7 51.4l-5.1-36.2h-.5l-5.2 36.2h10.8zm21.3-51.4h11.2c1.6 0 3.4.1 5.1.2 1.8.1 3.5.4 5.2.7 1.7.4 3.3.9 4.8 1.6 1.5.7 2.8 1.7 3.9 2.9s2 2.7 2.7 4.5 1 4 1 6.5v3.5c0 1.9-.3 3.7-.8 5.3-.6 1.6-1.3 3-2.2 4.3-.9 1.2-1.9 2.3-3.1 3.1-1.2.8-2.4 1.4-3.6 1.6v.3c3.6.7 6.3 2.4 8.2 5.1 1.8 2.8 2.7 6.3 2.7 10.6v3.7c0 2.6-.3 4.9-.9 6.9-.6 1.9-1.4 3.6-2.4 5-1.1 1.4-2.3 2.5-3.7 3.4s-3 1.6-4.8 2.1c-1.7.5-3.6.8-5.5 1-2 .2-4 .3-6 .3h-11.6V30.7h-.2zm13 31.2c1.5 0 2.8-.2 4-.5 1.2-.4 2.3-.9 3.1-1.7.9-.8 1.5-1.7 2-2.9s.7-2.7.7-4.4v-3c0-1.7-.2-3.2-.5-4.5s-.9-2.4-1.7-3.3c-.8-.9-1.8-1.6-3.1-2.1s-2.8-.7-4.6-.7h-2.1v23.1h2.2zm1 33.9c1.5 0 2.8-.2 4-.6s2.2-1 3.1-1.8c.9-.8 1.5-1.8 2-3.1.5-1.2.7-2.7.7-4.4v-5.7c0-1.7-.2-3.2-.5-4.5s-.9-2.4-1.7-3.3-1.8-1.6-3-2c-1.2-.5-2.8-.7-4.6-.7h-3.2v26.1h3.2zm27.9-7.1c0-1.6.1-3 .3-4.3s.5-2.7.8-4.3h8.6v3.5c0 2 .1 3.7.4 5.2.2 1.5.6 2.8 1.2 3.8s1.3 1.8 2.2 2.3 2.1.8 3.4.8c2.1 0 3.7-.6 4.8-1.7s1.7-2.8 1.7-5c0-1.1-.1-2.2-.2-3.1-.2-1-.4-1.9-.8-2.8-.4-.9-.9-1.9-1.6-3-.7-1-1.5-2.2-2.5-3.5l-11.5-13.7c-2-2.6-3.6-5.2-4.7-7.9s-1.7-5.5-1.7-8.5c0-2.4.4-4.6 1.1-6.6.8-2 1.8-3.8 3.3-5.2 1.4-1.5 3.2-2.6 5.3-3.4 2.1-.8 4.5-1.2 7.1-1.2 3.2 0 5.9.5 8 1.4 2.1.9 3.9 2.1 5.1 3.6 1.3 1.5 2.2 3.1 2.7 5 .5 1.8.8 3.7.8 5.5 0 1.6-.1 3-.4 4.3-.2 1.3-.5 2.8-.8 4.4h-8.5v-3.4c0-3.9-.6-6.8-1.7-8.9-1.1-2.1-2.9-3.1-5.4-3.1-2.1 0-3.6.6-4.6 1.7s-1.5 2.7-1.5 4.6c0 1 .1 1.9.2 2.8.2.8.4 1.6.7 2.3s.7 1.4 1.1 2c.4.7.9 1.3 1.4 2l12.8 15.5c2.3 3 4.1 6 5.4 8.8 1.2 2.8 1.9 5.8 1.9 8.9 0 2.6-.4 4.9-1.2 7s-2 3.8-3.5 5.3c-1.5 1.4-3.3 2.6-5.5 3.3-2.1.8-4.5 1.2-7.2 1.2-3.3 0-6-.4-8.2-1.3s-3.9-2-5.2-3.5c-1.3-1.4-2.2-3.1-2.7-4.9-.6-2.1-.9-4-.9-5.9z"/><path class="st0" d="M213.4 30.7h-3.1v46.2l-16.7-46.2h-8.9v72.7h9.8V58.2l16.8 45.3h9V30.7h-6.9z"/><path class="st2" d="M388.4 30.7h-3.1v46.2l-16.7-46.2h-8.9v72.7h9.8V58.2l16.8 45.3h9V30.7h-6.9z"/><path class="st3" d="M134.1 4.1v127.1"/></svg>